<svg height="512" viewBox="0 0 32 32" width="512" xmlns="http://www.w3.org/2000/svg" xmlns:xlink="http://www.w3.org/1999/xlink"><linearGradient id="linear-gradient" gradientUnits="userSpaceOnUse" x1="15.662" x2="16.338" y1="1.035" y2="30.965"><stop offset="0" stop-color="#08c8f6"/><stop offset="1" stop-color="#4d5dfb"/></linearGradient><g id="vpn"><rect fill="url(#linear-gradient)" height="29.5" rx="4.95" width="29.5" x="1.25" y="1.25"/><g fill="#fff" fill-rule="evenodd"><path d="m7.3 13.879 2.164 5.421a.75.75 0 0 0 1.392 0l2.169-5.422a.75.75 0 0 0 -1.393-.557l-1.472 3.679-1.472-3.678a.75.75 0 0 0 -1.393.557z"/><path d="m15.79 14.35v1.75h.876a.877.877 0 1 0 0-1.753zm-.75-1.5a.75.75 0 0 0 -.75.75v5.422a.75.75 0 0 0 1.5 0v-1.422h.876a2.377 2.377 0 1 0 0-4.753z"/><path d="m21.754 19.022v-2.714l1.86 3.1a.75.75 0 0 0 1.393-.386v-5.422a.75.75 0 0 0 -1.5 0v2.714l-1.86-3.1a.75.75 0 0 0 -1.393.386v5.422a.75.75 0 0 0 1.5 0z"/><path d="m26.05 11v10a.25.25 0 0 1 -.25.25h-19.6a.25.25 0 0 1 -.25-.25v-10a.25.25 0 0 1 .25-.25h19.6a.25.25 0 0 1 .25.25zm1.5 0a1.751 1.751 0 0 0 -1.75-1.75h-19.6a1.751 1.751 0 0 0 -1.75 1.75v10a1.751 1.751 0 0 0 1.75 1.75h19.6a1.751 1.751 0 0 0 1.75-1.75z"/></g></g></svg>