<?xml version="1.0" encoding="UTF-8"?>
<svg xmlns="http://www.w3.org/2000/svg" xmlns:xlink="http://www.w3.org/1999/xlink" version="1.1" width="512" height="512" x="0" y="0" viewBox="0 0 512 512" style="enable-background:new 0 0 512 512" xml:space="preserve">
  <g>
    <path d="M461.143 60.883 260.313.633a14.996 14.996 0 0 0-8.622 0L50.857 60.883A15 15 0 0 0 40.168 75.25v220.916c0 28.734 11.633 58.148 34.574 87.425 17.521 22.36 41.762 44.813 72.047 66.736 50.877 36.828 100.976 59.42 103.084 60.363a14.99 14.99 0 0 0 12.258 0c2.107-.943 52.205-23.535 103.082-60.363 30.285-21.923 54.525-44.376 72.047-66.736 22.941-29.276 34.572-58.69 34.572-87.425V75.25a14.997 14.997 0 0 0-10.689-14.367z" fill="#ff0000" opacity="1" data-original="#000000"/>
  </g>
</svg>
